<svg width="109" height="73" viewBox="0 0 109 73" fill="none" xmlns="http://www.w3.org/2000/svg">
<path d="M32.764 2.17462C33.0462 2.17462 33.2388 2.42236 33.232 2.73204C33.2251 2.91097 33.1494 3.11054 32.9705 3.28946C25.9786 11.9811 20.8861 22.1455 20.8861 36.2462C20.8861 50.34 25.9786 60.3047 32.9705 68.9964C33.1494 69.1684 33.2251 69.3749 33.232 69.5538C33.2388 69.8566 33.0462 70.1112 32.764 70.1112C32.6057 70.1112 32.4199 70.0355 32.2272 69.836L2.43614 41.0152C0.949681 39.7421 0 38.2556 0 36.1429C0 34.0165 0.949681 32.5369 2.43614 31.2707L32.2272 2.44301C32.4199 2.24344 32.6057 2.16774 32.764 2.17462Z" fill="#E71423"/>
<path d="M68.1224 7.48046C68.1224 8.21681 67.8402 8.91875 67.2209 9.5381C63.9039 12.7381 62.6032 15.945 62.5963 18.7734C62.5757 24.1756 67.2553 28.1945 71.5701 28.1945C77.5091 28.1945 81.005 23.5218 81.005 17.4865C81.005 11.7678 78.5689 6.99186 75.9125 3.17937C75.8093 3.02109 75.7611 2.84904 75.7611 2.69764C75.768 2.39485 75.94 2.14711 76.2084 2.14711C76.3667 2.14711 76.5525 2.23657 76.759 2.44302L106.557 31.2707C108.043 32.53 109 34.0165 109 36.1429C109 38.2556 108.043 39.7421 106.557 41.0152L76.759 69.836C76.5525 70.0424 76.3667 70.125 76.2084 70.125C75.94 70.125 75.768 69.8841 75.7611 69.5813C75.7611 69.4299 75.8093 69.2579 75.9125 69.0996C78.5689 65.2803 81.005 60.5112 81.005 54.7925C81.005 48.7503 77.5091 44.0845 71.5701 44.0845C67.2553 44.0845 62.5757 48.1034 62.5963 53.5056C62.6032 56.334 63.9039 59.534 67.2209 62.7409C67.8402 63.3602 68.1224 64.0691 68.1224 64.8054C68.1017 68.1706 62.1353 72.2721 55.1365 72.2721C43.472 72.2721 38.9094 55.9624 38.9094 36.2462C38.9094 16.5368 43.472 0 55.1365 0C62.1353 0 68.1017 4.10152 68.1224 7.48046Z" fill="#02A1D0"/>
</svg>
